<svg xmlns="http://www.w3.org/2000/svg" viewBox="0 0 32 32">
  <defs>
    <linearGradient id="sol-gradient" x1="0%" y1="0%" x2="100%" y2="100%">
      <stop offset="0%" style="stop-color:#00FFA3"/>
      <stop offset="50%" style="stop-color:#03E1FF"/>
      <stop offset="100%" style="stop-color:#DC1FFF"/>
    </linearGradient>
  </defs>
  <g fill="none" fill-rule="evenodd">
    <circle cx="16" cy="16" r="16" fill="#000"/>
    <g fill="url(#sol-gradient)">
      <path d="M9.925 19.687a.59.59 0 01.418-.173h12.89c.264 0 .396.319.21.505l-2.668 2.668a.59.59 0 01-.418.173H7.467a.296.296 0 01-.21-.505l2.668-2.668z"/>
      <path d="M9.925 9.313a.606.606 0 01.418-.173h12.89c.264 0 .396.319.21.505l-2.668 2.668a.59.59 0 01-.418.173H7.467a.296.296 0 01-.21-.505l2.668-2.668z"/>
      <path d="M20.357 14.46a.59.59 0 00-.418-.173H7.049a.296.296 0 00-.21.505l2.668 2.668a.59.59 0 00.418.173h12.89a.296.296 0 00.21-.505l-2.668-2.668z"/>
    </g>
  </g>
</svg>
